<svg xmlns="http://www.w3.org/2000/svg" viewBox="0 0 600 380">
  <defs>
    <linearGradient id="bg" x1="0%" y1="0%" x2="100%" y2="100%">
      <stop offset="0%" stop-color="#eef2ff" />
      <stop offset="100%" stop-color="#e0f2fe" />
    </linearGradient>
    <linearGradient id="card1" x1="0%" y1="0%" x2="100%" y2="100%">
      <stop offset="0%" stop-color="#6366f1" />
      <stop offset="100%" stop-color="#8b5cf6" />
    </linearGradient>
    <linearGradient id="card2" x1="0%" y1="0%" x2="100%" y2="100%">
      <stop offset="0%" stop-color="#f97316" />
      <stop offset="100%" stop-color="#f59e0b" />
    </linearGradient>
    <linearGradient id="card3" x1="0%" y1="0%" x2="100%" y2="100%">
      <stop offset="0%" stop-color="#10b981" />
      <stop offset="100%" stop-color="#34d399" />
    </linearGradient>
    <linearGradient id="card4" x1="100%" y1="0%" x2="0%" y2="100%">
      <stop offset="0%" stop-color="#14b8a6" />
      <stop offset="100%" stop-color="#0ea5e9" />
    </linearGradient>
    <linearGradient id="card5" x1="0%" y1="100%" x2="100%" y2="0%">
      <stop offset="0%" stop-color="#f472b6" />
      <stop offset="100%" stop-color="#ec4899" />
    </linearGradient>
    <linearGradient id="card6" x1="0%" y1="0%" x2="0%" y2="100%">
      <stop offset="0%" stop-color="#facc15" />
      <stop offset="100%" stop-color="#fbbf24" />
    </linearGradient>
  </defs>

  <rect width="600" height="380" fill="#e5e7eb" rx="24" />
  <rect x="18" y="18" width="564" height="344" fill="url(#bg)" rx="20" />

  <g transform="translate(48 56)">
    <rect width="160" height="120" rx="16" fill="url(#card1)" />
    <rect x="188" width="160" height="120" rx="16" fill="url(#card2)" />
    <rect x="376" width="160" height="120" rx="16" fill="url(#card3)" />

    <rect y="148" width="160" height="120" rx="16" fill="url(#card4)" />
    <rect x="188" y="148" width="160" height="120" rx="16" fill="url(#card5)" />
    <rect x="376" y="148" width="160" height="120" rx="16" fill="url(#card6)" />
  </g>

  <text x="300" y="330" text-anchor="middle" font-family="'Segoe UI', Arial, sans-serif" font-size="22" fill="#1f2937">
    이미지 갤러리 2 x 3 그리드 미리보기
  </text>
</svg>
